HIERARCHY
ROOT Hips
{
	OFFSET 0.000000 0.000000 0.000000 
	CHANNELS 6 Xposition Yposition Zposition Zrotation Yrotation Xrotation
	JOINT LeftUpLeg
	{
		OFFSET 1.363060 -1.794630 0.839290 
		CHANNELS 3 Zrotation Yrotation Xrotation
		JOINT LeftLeg
		{
			OFFSET 2.448110 -6.726130 0.000000 
			CHANNELS 3 Zrotation Yrotation Xrotation
			JOINT LeftFoot
			{
				OFFSET 2.562200 -7.039590 0.000000 
				CHANNELS 3 Zrotation Yrotation Xrotation
				JOINT LeftToeBase
				{
					OFFSET 0.157640 -0.433110 2.322550 
					CHANNELS 3 Zrotation Yrotation Xrotation
					End Site
					{
						OFFSET 0.000000 0.000000 0.000000 
					}
				}
			}
		}
	}
	JOINT RightUpLeg
	{
		OFFSET -1.305520 -1.794630 0.839290 
		CHANNELS 3 Zrotation Yrotation Xrotation
		JOINT RightLeg
		{
			OFFSET -2.542530 -6.985550 0.000000 
			CHANNELS 3 Zrotation Yrotation Xrotation
			JOINT RightFoot
			{
				OFFSET -2.568260 -7.056230 0.000000 
				CHANNELS 3 Zrotation Yrotation Xrotation
				JOINT RightToeBase
				{
					OFFSET -0.164730 -0.452590 2.363150 
					CHANNELS 3 Zrotation Yrotation Xrotation
					End Site
					{
						OFFSET 0.000000 0.000000 0.000000 
					}
				}
			}
		}
	}
	JOINT Spine
	{
		OFFSET 0.028270 2.035590 -0.193380 
		CHANNELS 3 Zrotation Yrotation Xrotation
		JOINT Spine1
		{
			OFFSET 0.056720 2.048850 -0.042750 
			CHANNELS 3 Zrotation Yrotation Xrotation
			JOINT Neck1
			{
				OFFSET -0.054170 1.746240 0.172020 
				CHANNELS 3 Zrotation Yrotation Xrotation
				JOINT Head
				{
					OFFSET 0.104070 1.761360 -0.123970 
					CHANNELS 3 Zrotation Yrotation Xrotation
					End Site
					{
						OFFSET 0.000000 0.000000 0.000000 
					}
				}
			}
			JOINT LeftArm
			{
				OFFSET 3.362410 1.200890 -0.311210 
				CHANNELS 3 Zrotation Yrotation Xrotation
				JOINT LeftForeArm
				{
					OFFSET 4.983000 -0.000000 -0.000000 
					CHANNELS 3 Zrotation Yrotation Xrotation
					JOINT LeftHand
					{
						OFFSET 3.483560 -0.000000 -0.000000 
						CHANNELS 3 Zrotation Yrotation Xrotation
						JOINT LeftHandIndex1
						{
							OFFSET 0.715260 -0.000000 -0.000000 
							CHANNELS 3 Zrotation Yrotation Xrotation
							End Site
							{
								OFFSET 0.000000 0.000000 0.000000 
							}
						}
					}
				}
			}
			JOINT RightArm
			{
				OFFSET -3.136600 1.374050 -0.404650 
				CHANNELS 3 Zrotation Yrotation Xrotation
				JOINT RightForeArm
				{
					OFFSET -5.241900 -0.000000 -0.000000 
					CHANNELS 3 Zrotation Yrotation Xrotation
					JOINT RightHand
					{
						OFFSET -3.444170 -0.000000 -0.000000 
						CHANNELS 3 Zrotation Yrotation Xrotation
						JOINT RightHandIndex1
						{
							OFFSET -0.622530 -0.000000 -0.000000 
							CHANNELS 3 Zrotation Yrotation Xrotation
							End Site
							{
								OFFSET 0.000000 0.000000 0.000000 
							}
						}
					}
				}
			}
		}
	}
}
MOTION
Frames: 12
Frame Time: 0.041667
-6.653698 17.885521 0.215090 -132.656451 86.232691 -115.703234 -2.115851 -3.120521 -27.137513 -0.026798 7.919856 21.406598 0.010103 1.752931 2.719399 1.593700 -7.962900 -22.601500 3.688733 5.731676 -24.742163 -1.412201 -7.656807 22.426762 2.069049 -12.352689 -6.432842 -1.053500 -6.526600 18.320100 5.867569 1.855608 6.951813 5.502079 1.108326 1.156871 1.426098 -4.801307 34.112367 -1.679400 -0.398500 17.068000 -105.253455 -16.547207 87.079997 17.628890 -29.950217 -3.625717 -0.362129 1.571244 -47.506483 -7.125000 0.000000 0.000000 101.855805 21.764820 40.993009 -11.292142 21.596710 -1.982064 -0.431654 -0.167268 -35.375757 7.125000 0.000000 0.000000 
-6.653998 17.884820 0.217391 -132.974141 86.250297 -116.003529 -2.142143 -3.119041 -27.152628 -0.029989 7.914603 21.392000 0.009517 1.757222 2.764083 1.555700 -7.871700 -22.325200 3.668446 5.674541 -24.823770 -1.417782 -7.676069 22.507053 1.978635 -11.950561 -6.906493 -1.457100 -7.629600 21.594500 5.883531 1.845899 6.964018 5.542986 1.105273 1.157734 1.298250 -4.770896 34.121517 -1.745200 -0.394000 17.083800 -105.276045 -16.558857 87.104030 17.640280 -29.965113 -3.631786 -0.363730 1.570104 -47.575353 -7.125000 0.000000 0.000000 101.773930 21.776025 41.301759 -11.327371 21.652542 -1.994003 -0.431461 -0.168099 -35.708596 7.125000 0.000000 0.000000 
-6.654198 17.884921 0.218092 -133.405830 86.287002 -116.426559 -2.196010 -3.129351 -27.171154 -0.029286 7.921884 21.413581 0.005624 1.771064 2.731747 1.531600 -7.813500 -22.149000 3.610501 5.654620 -24.839012 -1.419736 -7.676853 22.504754 2.010270 -12.091440 -6.784755 -1.240400 -7.062100 19.899500 5.908894 1.833197 6.979968 5.596989 1.100554 1.158735 1.227827 -4.764495 34.092799 -1.778200 -0.402600 17.070300 -105.336667 -16.585343 87.124588 17.643428 -29.968930 -3.634598 -0.365756 1.568577 -47.756064 -7.125000 0.000000 0.000000 101.701407 21.756226 41.548102 -11.376753 21.726844 -2.008359 -0.435332 -0.169852 -35.913552 7.125000 0.000000 0.000000 
-6.653698 17.885421 0.218192 -133.423759 86.287544 -116.469203 -2.189161 -3.163813 -27.151941 -0.026633 7.927523 21.431567 0.002876 1.781565 2.708441 1.535900 -7.823800 -22.180300 3.654908 5.600933 -24.850438 -1.455002 -7.693822 22.481181 2.362581 -13.717315 -4.490240 -0.084600 1.876400 -5.164100 5.882045 1.819008 7.041338 5.563454 1.093791 1.199058 1.248927 -4.778484 33.998294 -1.773400 -0.411700 17.008000 -105.354555 -16.641610 87.109779 17.621430 -29.940380 -3.623171 -0.366439 1.568199 -47.825145 -7.125000 0.000000 0.000000 101.731214 21.777487 41.590286 -11.392146 21.749789 -2.012272 -0.438324 -0.172598 -35.855266 7.125000 0.000000 0.000000 
-6.653998 17.885821 0.218292 -133.255583 86.255007 -116.316471 -2.128027 -3.218052 -27.127396 -0.022983 7.933957 21.444909 -0.000128 1.799885 2.709908 1.546000 -7.848400 -22.254500 3.710599 5.596410 -24.841620 -1.457659 -7.695902 22.491761 2.367878 -13.743049 -4.452424 -0.089600 1.930800 -5.314500 5.719682 1.845332 7.096833 5.373585 1.104109 1.232886 1.354126 -4.869685 33.950222 -1.752000 -0.426300 16.970000 -105.234559 -16.694418 87.218994 17.617239 -29.940165 -3.620844 -0.370741 1.571334 -47.909424 -7.125000 0.000000 0.000000 101.889991 21.849538 41.430060 -11.362059 21.703432 -2.002559 -0.438280 -0.172766 -35.653455 7.125000 0.000000 0.000000 
-6.654498 17.886021 0.217892 -133.291509 86.248659 -116.318724 -2.118498 -3.210948 -27.170837 -0.022034 7.939515 21.451797 0.001124 1.796296 2.691466 1.609400 -8.000000 -22.714100 3.718545 5.607278 -24.880035 -1.461890 -7.698395 22.511333 2.372108 -13.759513 -4.454552 -0.086800 1.899900 -5.229100 5.536507 1.879683 7.097581 5.192935 1.117410 1.247294 1.400194 -4.936300 33.988048 -1.763200 -0.423300 16.987800 -105.085319 -16.738660 87.429475 17.634596 -29.969291 -3.629680 -0.381695 1.577338 -48.186545 -7.125000 0.000000 0.000000 102.072561 21.921274 41.148250 -11.286577 21.586957 -1.979476 -0.434073 -0.168922 -35.287773 7.125000 0.000000 0.000000 
-6.654698 17.884620 0.218292 -133.621275 86.257175 -116.616135 -2.161089 -3.135284 -27.246851 -0.023841 7.939874 21.448482 0.018991 1.710501 2.713410 1.590000 -7.954100 -22.574900 3.693946 5.597410 -24.929908 -1.466542 -7.705223 22.542424 2.370896 -13.750363 -4.533244 -0.074100 1.756100 -4.832100 5.460348 1.904862 7.069143 5.139252 1.128985 1.233713 1.357607 -4.959981 34.050024 -1.805600 -0.414200 17.020000 -105.022938 -16.760979 87.624213 17.637640 -29.977447 -3.632765 -0.390812 1.580795 -48.533113 -7.125000 0.000000 0.000000 102.112162 21.931854 40.970772 -11.255059 21.541301 -1.971942 -0.428708 -0.168341 -34.957339 7.125000 0.000000 0.000000 
-6.654898 17.882620 0.218892 -133.845789 86.274490 -116.853042 -2.198051 -3.097556 -27.248456 -0.025929 7.936340 21.441076 0.024873 1.681081 2.732095 1.523500 -7.793700 -22.089300 3.673872 5.564668 -24.943251 -1.470370 -7.714346 22.571110 2.350060 -13.650096 -4.548726 -0.000100 -0.060400 0.166100 5.469188 1.915302 7.051967 5.159947 1.135996 1.184840 1.270167 -4.955905 34.064829 -1.856100 -0.411900 17.022000 -105.000309 -16.750131 87.671890 17.642247 -29.986238 -3.637566 -0.391949 1.578588 -48.740522 -7.125000 0.000000 0.000000 102.074153 21.931666 40.921848 -11.239434 21.519781 -1.968623 -0.426250 -0.170585 -34.706621 7.125000 0.000000 0.000000 
-6.654698 17.883120 0.218892 -134.152947 86.302232 -117.181087 -2.247442 -3.095770 -27.220642 -0.028860 7.932238 21.434227 0.018466 1.710206 2.740962 1.529600 -7.808600 -22.134100 3.626283 5.545870 -24.926911 -1.469521 -7.720152 22.588933 2.324956 -13.529092 -4.729672 -0.003000 -0.353000 0.969800 5.506593 1.890839 7.075475 5.209663 1.126101 1.166842 1.160746 -4.906653 34.068478 -1.902900 -0.405200 17.034500 -105.044003 -16.778206 87.614109 17.620499 -29.955272 -3.624911 -0.393215 1.574729 -48.757884 -7.125000 0.000000 0.000000 102.051569 21.976608 40.939599 -11.207361 21.468748 -1.957003 -0.428784 -0.172983 -34.556302 7.125000 0.000000 0.000000 
-6.653998 17.885021 0.220393 -134.067048 86.301633 -117.097827 -2.257527 -3.061324 -27.228253 -0.029579 7.927156 21.425230 0.024350 1.681769 2.792096 1.537000 -7.826600 -22.188700 3.611779 5.584439 -24.909123 -1.466070 -7.720830 22.593537 2.298391 -13.403364 -4.951520 -0.022200 -0.961300 2.642200 5.658046 1.849735 7.097182 5.338641 1.108730 1.172557 1.093635 -4.817237 34.124216 -1.902300 -0.392500 17.092700 -105.239685 -16.816555 87.479222 17.544996 -29.845683 -3.581941 -0.393978 1.570672 -48.646921 -7.125000 0.000000 0.000000 101.951255 22.032453 41.031434 -11.166892 21.400964 -1.940644 -0.435229 -0.176721 -34.515544 7.125000 0.000000 0.000000 
-6.653598 17.885421 0.222494 -133.761035 86.291017 -116.768048 -2.222272 -3.075787 -27.238891 -0.029466 7.923484 21.415093 0.020674 1.701511 2.807808 1.528800 -7.806500 -22.127900 3.651858 5.579824 -24.947077 -1.465675 -7.719365 22.589914 2.302569 -13.424627 -4.945432 -0.022800 -0.975100 2.680200 5.771320 1.826494 7.089224 5.425394 1.098352 1.177143 1.105716 -4.780903 34.167199 -1.872200 -0.390000 17.128500 -105.359389 -16.847263 87.383781 17.483555 -29.760356 -3.551950 -0.390427 1.565597 -48.732851 -7.125000 0.000000 0.000000 101.863427 22.049321 41.001746 -11.112028 21.310935 -1.921433 -0.436985 -0.177192 -34.299534 7.125000 0.000000 0.000000 
-6.653498 17.885021 0.223794 -134.001973 86.288295 -116.983980 -2.201830 -3.173317 -27.223720 -0.032166 7.921118 21.403920 0.004859 1.777047 2.747879 1.533900 -7.819100 -22.165800 3.652748 5.553772 -24.982347 -1.464851 -7.718800 22.593054 2.300538 -13.414589 -5.053846 -0.023600 -0.991100 2.724300 5.776647 1.806850 7.073350 5.439969 1.087864 1.176916 1.147977 -4.804317 34.189446 -1.851200 -0.395000 17.137000 -105.327692 -16.881936 87.426449 17.463500 -29.735912 -3.545734 -0.389463 1.559709 -48.989469 -7.125000 0.000000 0.000000 101.785690 21.999397 40.944219 -11.092729 21.282236 -1.918170 -0.431007 -0.178066 -34.059572 7.125000 0.000000 0.000000 
